<svg width="15" height="14" viewBox="0 0 15 14" fill="none" xmlns="http://www.w3.org/2000/svg">
<path fill-rule="evenodd" clip-rule="evenodd" d="M2.25 1.50024C2.1837 1.50024 2.12011 1.52658 2.07322 1.57346C2.02634 1.62035 2 1.68394 2 1.75024V9.25024C2 9.38824 2.112 9.50024 2.25 9.50024H4.25C4.44891 9.50024 4.63968 9.57924 4.78033 9.71994C4.92098 9.86054 5 10.0513 5 10.2502V12.4402L7.72 9.72024C7.86052 9.57954 8.05115 9.50044 8.25 9.50024H12.75C12.8163 9.50024 12.8799 9.47394 12.9268 9.42704C12.9737 9.38014 13 9.31654 13 9.25024V1.75024C13 1.68394 12.9737 1.62035 12.9268 1.57346C12.8799 1.52658 12.8163 1.50024 12.75 1.50024H2.25ZM0.5 1.75024C0.5 0.784244 1.284 0.000244141 2.25 0.000244141H12.75C13.716 0.000244141 14.5 0.784244 14.5 1.75024V9.25024C14.5 9.71434 14.3156 10.1594 13.9874 10.4876C13.6592 10.8158 13.2141 11.0002 12.75 11.0002H8.56L5.987 13.5732C5.78324 13.7769 5.52367 13.9155 5.24111 13.9717C4.95854 14.0279 4.66567 13.999 4.3995 13.8888C4.13333 13.7786 3.90581 13.5919 3.74571 13.3524C3.58561 13.1129 3.5001 12.8313 3.5 12.5432V11.0002H2.25C1.78587 11.0002 1.34075 10.8158 1.01256 10.4876C0.68437 10.1594 0.5 9.71434 0.5 9.25024V1.75024Z" fill="white"/>
</svg>
